External Loads File
version=1
nRows=70
nColumns=13
Range=5.000000e-03-10 seconds
endheader
time 	forceRightX 	forceRightY 	forceRightZ 	pointRightX 	pointRightY 	pointRightZ 	forceLeftX 	forceLeftY 	forceLeftZ 	pointLeftX 	pointLeftY 	pointLeftZ 		
5.005000 -130.331289 -178.412613 -0.000000 0.073666 0.262691 -0.121939 -53.611802 545.929627 -0.000000 0.360779 0.331835 -0.368149
5.010000 -104.735625 -142.110474 -0.000000 0.072930 0.273529 -0.121765 -46.242078 576.216210 -0.000000 0.360334 0.319985 -0.367930
5.015000 -79.121788 -111.824130 -0.000000 0.072797 0.284736 -0.121671 -39.911983 602.677853 -0.000000 0.359381 0.308816 -0.368859
5.020000 -55.736762 -87.882566 -0.000000 0.073397 0.296093 -0.121705 -34.916408 626.561950 -0.000000 0.358124 0.298000 -0.367891
5.025000 -35.950192 -69.903115 -0.000000 0.074641 0.307420 -0.121905 -31.360105 649.141041 -0.000000 0.356469 0.287437 -0.367503
5.030000 -20.479267 -57.058693 -0.000000 0.076602 0.318935 -0.122133 -28.007216 671.516133 -0.000000 0.354566 0.277069 -0.367091
5.035000 -9.384451 -48.442477 -0.000000 0.079116 0.330304 -0.122587 -24.218597 694.578017 -0.000000 0.351779 0.266693 -0.366831
5.040000 -2.415758 -43.100188 -0.000000 0.082231 0.341583 -0.123050 -19.016130 719.159527 -0.000000 0.348554 0.256142 -0.366553
5.045000 0.951085 -40.097227 -0.000000 0.085946 0.352658 -0.123520 -12.783889 745.926391 -0.000000 0.344533 0.245758 -0.366341
5.050000 1.319903 -38.530929 -0.000000 0.090327 0.363554 -0.123838 -5.664166 775.300427 -0.000000 0.339908 0.235854 -0.366059
5.055000 -0.733501 -37.585306 -0.000000 0.095279 0.374155 -0.124312 3.723083 807.312806 -0.000000 0.334757 0.226061 -0.361614
5.060000 -4.586327 -36.570768 -0.000000 0.100861 0.384294 -0.124710 15.314984 841.571000 -0.000000 0.328871 0.216652 -0.361481
5.065000 -9.833288 -34.941254 -0.000000 0.106998 0.393944 -0.125157 32.534409 877.218109 -0.000000 0.320810 0.207713 -0.357831
5.070000 -15.615105 -32.515933 -0.000000 0.113715 0.403044 -0.125515 45.416537 913.399228 -0.000000 0.315223 0.199663 -0.361097
5.075000 -22.083483 -29.035981 -0.000000 0.120981 0.411372 -0.125861 67.949816 947.734809 -0.000000 0.306314 0.191885 -0.361115
5.080000 -28.556835 -24.903866 -0.000000 0.128800 0.419018 -0.126135 87.256077 978.853233 -0.000000 0.299525 0.184594 -0.364831
5.085000 -35.196772 -20.215776 -0.000000 0.136959 0.426004 -0.126488 112.020825 1003.920171 -0.000000 0.291219 0.177830 -0.364544
5.090000 -41.965108 -15.307471 -0.000000 0.146240 0.432491 -0.126357 141.605302 1020.660860 -0.000000 0.282597 0.171416 -0.364345
5.095000 -48.845924 -10.736191 -0.000000 0.155376 0.438260 -0.126534 170.305422 1027.838354 -0.000000 0.273818 0.165561 -0.364172
5.100000 -55.944856 -6.729811 -0.000000 0.164796 0.443585 -0.126449 198.539887 1023.988390 -0.000000 0.264948 0.160265 -0.364059
5.105000 -63.284346 -3.365791 -0.000000 0.174402 0.448303 -0.126597 225.337163 1008.415019 -0.000000 0.255944 0.154995 -0.364008
5.110000 -70.824836 -0.538181 -0.000000 0.184802 0.452398 -0.126053 249.664904 981.118390 -0.000000 0.246881 0.151460 -0.363940
5.115000 -78.498989 1.650432 -0.000000 0.194213 0.455677 -0.126455 266.729698 943.782025 -0.000000 0.237779 0.147932 -0.363825
5.120000 -86.230561 3.819814 -0.000000 0.204376 0.458487 -0.126622 280.859381 896.162821 -0.000000 0.228710 0.144976 -0.363886
5.125000 -93.918914 6.071511 -0.000000 0.214513 0.460801 -0.126804 289.239254 840.202653 -0.000000 0.219728 0.141993 -0.364016
5.130000 -101.387804 8.769985 -0.000000 0.224873 0.462565 -0.127056 292.416063 777.133585 -0.000000 0.210796 0.140093 -0.364159
5.135000 -108.431558 11.680354 -0.000000 0.234903 0.463664 -0.127115 287.315949 709.854582 -0.000000 0.202003 0.128964 -0.364163
5.140000 -114.629894 15.958695 -0.000000 0.245053 0.464138 -0.127155 281.341186 637.426499 -0.000000 0.193364 0.138195 -0.364393
5.145000 -119.705762 20.906529 -0.000000 0.255258 0.463770 -0.127054 270.069502 563.907163 -0.000000 0.184585 0.138692 -0.364391
5.150000 -123.298706 26.649746 -0.000000 0.265254 0.462871 -0.126834 255.382609 490.995582 -0.000000 0.175745 0.139902 -0.364267
5.155000 -125.036019 33.352019 -0.000000 0.275239 0.461262 -0.126402 238.914004 420.178488 -0.000000 0.166584 0.142048 -0.364135
5.160000 -124.684759 40.656559 -0.000000 0.284765 0.459286 -0.126370 220.218046 353.485824 -0.000000 0.157396 0.144806 -0.363870
5.165000 -121.969122 48.634239 -0.000000 0.293856 0.456724 -0.126281 200.220271 291.400054 -0.000000 0.148226 0.148386 -0.363629
5.170000 -116.804826 57.207091 -0.000000 0.302331 0.453578 -0.126184 178.980293 234.042192 -0.000000 0.139411 0.152446 -0.363302
5.175000 -109.146336 66.746186 -0.000000 0.310363 0.449874 -0.126012 157.080736 180.423330 -0.000000 0.131047 0.157065 -0.362956
5.180000 -99.095372 77.793623 -0.000000 0.317715 0.445645 -0.125957 134.766168 129.280213 -0.000000 0.122922 0.162097 -0.361862
5.185000 -86.945248 91.029005 -0.000000 0.324400 0.440768 -0.125839 112.113500 79.358911 -0.000000 0.115693 0.167524 -0.361996
5.190000 -72.809322 107.552987 -0.000000 0.330333 0.435084 -0.125770 89.449653 29.241833 -0.000000 0.109004 0.173381 -0.362021
5.195000 -56.869076 128.380028 -0.000000 0.335625 0.429255 -0.125477 66.771989 -21.780245 -0.000000 0.102521 0.179752 -0.361424
5.200000 -39.233796 154.482448 -0.000000 0.340244 0.422811 -0.125095 43.920681 -73.627749 -0.000000 0.096369 0.186647 -0.361114
5.205000 -20.015756 186.577678 -0.000000 0.344475 0.416075 -0.124460 20.530616 -125.145020 -0.000000 0.090462 0.194212 -0.360848
5.210000 0.179676 224.929445 -0.000000 0.347766 0.408879 -0.124425 -3.462666 -174.096039 -0.000000 0.085219 0.202360 -0.360481
5.215000 20.077559 269.327650 -0.000000 0.350850 0.401962 -0.124102 -27.304556 -217.730454 -0.000000 0.080870 0.210340 -0.360534
5.220000 39.689113 318.767946 -0.000000 0.353664 0.393834 -0.123560 -50.893350 -253.222983 -0.000000 0.077390 0.218237 -0.360865
5.225000 57.558955 371.600369 -0.000000 0.356239 0.385457 -0.123283 -72.454087 -278.556957 -0.000000 0.074760 0.226137 -0.361337
5.230000 74.070269 425.489653 -0.000000 0.358383 0.376420 -0.123349 -91.098734 -292.595209 -0.000000 0.072324 0.234444 -0.361732
5.235000 87.926809 478.277759 -0.000000 0.360245 0.367533 -0.123879 -104.447825 -295.733940 -0.000000 0.070138 0.243121 -0.361860
5.240000 99.612913 527.828072 -0.000000 0.362020 0.358328 -0.124266 -111.545195 -288.933960 -0.000000 0.068149 0.252163 -0.361750
5.245000 112.607514 572.002438 -0.000000 0.363113 0.347075 -0.123930 -113.165304 -273.202385 -0.000000 0.066193 0.261846 -0.361672
5.250000 124.094432 610.531226 -0.000000 0.363570 0.335937 -0.123325 -107.237184 -251.373133 -0.000000 0.064139 0.272123 -0.360479
5.255000 134.048483 643.243899 -0.000000 0.363880 0.324477 -0.122995 -94.281619 -225.821851 -0.000000 0.062784 0.282437 -0.360625
5.260000 142.647527 670.425199 -0.000000 0.363717 0.313141 -0.122285 -75.694146 -198.716106 -0.000000 0.062014 0.293104 -0.360832
5.265000 150.228623 692.695235 -0.000000 0.363221 0.301667 -0.122399 -53.389373 -171.811918 -0.000000 0.061719 0.303797 -0.361018
5.270000 155.955853 711.149339 -0.000000 0.362371 0.290574 -0.122313 -29.112112 -146.402245 -0.000000 0.062072 0.314522 -0.361308
5.275000 160.335830 726.675076 -0.000000 0.360913 0.279963 -0.122696 -4.750041 -123.053136 -0.000000 0.063124 0.325395 -0.361638
5.280000 164.254886 740.059998 -0.000000 0.359190 0.269525 -0.122926 18.277576 -101.892467 -0.000000 0.064847 0.336342 -0.361910
5.285000 167.561157 752.258218 -0.000000 0.356847 0.259211 -0.123165 39.266174 -82.739414 -0.000000 0.067177 0.347004 -0.362233
5.290000 170.827796 763.982836 -0.000000 0.353992 0.249112 -0.123351 57.832960 -65.269706 -0.000000 0.070326 0.357457 -0.362393
5.295000 174.818677 775.822830 -0.000000 0.350500 0.238852 -0.123442 73.888615 -49.229523 -0.000000 0.074052 0.367471 -0.362576
5.300000 179.386269 788.487765 -0.000000 0.346469 0.228963 -0.123438 87.551841 -34.479055 -0.000000 0.078513 0.377248 -0.362752
5.305000 184.915893 802.435051 -0.000000 0.341915 0.219043 -0.123188 98.860096 -21.210936 -0.000000 0.083745 0.386297 -0.362827
5.310000 191.740498 817.880589 -0.000000 0.337097 0.209518 -0.122523 107.660655 -9.954139 -0.000000 0.089683 0.395167 -0.362879
5.315000 202.765878 834.064760 -0.000000 0.330495 0.200420 -0.122902 113.521589 -1.882947 -0.000000 0.096307 0.403842 -0.362918
5.320000 214.245859 851.456404 -0.000000 0.323926 0.191811 -0.122816 115.797884 2.598675 -0.000000 0.103646 0.411753 -0.363015
5.325000 228.639480 868.761454 -0.000000 0.316977 0.183546 -0.122674 113.611629 2.380106 -0.000000 0.111845 0.419378 -0.363133
5.330000 243.929919 885.625104 -0.000000 0.309577 0.175731 -0.122329 106.041023 -2.718449 -0.000000 0.120682 0.425781 -0.363225
5.335000 263.029499 900.282192 -0.000000 0.301397 0.168194 -0.122072 92.281298 -13.045093 -0.000000 0.130201 0.431934 -0.363335
5.340000 283.263231 912.478159 -0.000000 0.293171 0.161115 -0.121836 71.837007 -27.864585 -0.000000 0.140341 0.437682 -0.363451
5.345000 303.887742 921.496544 -0.000000 0.284553 0.154941 -0.121764 44.685719 -46.461280 -0.000000 0.151129 0.442412 -0.363578
5.350000 325.520743 926.209291 -0.000000 0.275046 0.149345 -0.122446 11.238217 -67.997561 -0.000000 0.161945 0.446640 -0.363438
